<mxfile host="app.diagrams.net" modified="2024-03-02T14:03:32.479Z" agent="Mozilla/5.0 (Windows NT 10.0; Win64; x64) AppleWebKit/537.36 (KHTML, like Gecko) Chrome/122.0.0.0 Safari/537.36 Edg/122.0.0.0" etag="DrqwheHPElFzWE_6_yuI" version="24.0.0" type="github">
  <diagram name="第 1 页" id="LWfdZlHeMuC_4qIRrHQd">
    <mxGraphModel dx="744" dy="1135" grid="1" gridSize="10" guides="1" tooltips="1" connect="1" arrows="1" fold="1" page="1" pageScale="1" pageWidth="827" pageHeight="1169" math="0" shadow="0">
      <root>
        <mxCell id="0" />
        <mxCell id="1" parent="0" />
        <mxCell id="an11E4ThKQJ9gUBb6iRM-1" value="" style="rounded=0;whiteSpace=wrap;html=1;fillColor=#e1d5e7;strokeColor=#9673a6;" parent="1" vertex="1">
          <mxGeometry x="33" y="465" width="667" height="94" as="geometry" />
        </mxCell>
        <mxCell id="an11E4ThKQJ9gUBb6iRM-2" value="" style="rounded=0;whiteSpace=wrap;html=1;fillColor=#d5e8d4;strokeColor=#82b366;" parent="1" vertex="1">
          <mxGeometry x="33" y="290" width="667" height="170" as="geometry" />
        </mxCell>
        <mxCell id="an11E4ThKQJ9gUBb6iRM-3" value="" style="rounded=0;whiteSpace=wrap;html=1;fillColor=#fff2cc;strokeColor=#d6b656;" parent="1" vertex="1">
          <mxGeometry x="33" y="160" width="667" height="126" as="geometry" />
        </mxCell>
        <mxCell id="an11E4ThKQJ9gUBb6iRM-4" value="&lt;font face=&quot;宋体&quot; size=&quot;1&quot; style=&quot;&quot;&gt;&lt;span style=&quot;font-size: 18px;&quot;&gt;&lt;b&gt;推理查询队列&lt;/b&gt;&lt;/span&gt;&lt;/font&gt;" style="rounded=0;whiteSpace=wrap;html=1;" parent="1" vertex="1">
          <mxGeometry x="127" y="110" width="491" height="33" as="geometry" />
        </mxCell>
        <mxCell id="an11E4ThKQJ9gUBb6iRM-7" value="" style="rounded=0;whiteSpace=wrap;html=1;" parent="1" vertex="1">
          <mxGeometry x="90" y="186" width="580" height="90" as="geometry" />
        </mxCell>
        <mxCell id="an11E4ThKQJ9gUBb6iRM-17" value="" style="rounded=0;whiteSpace=wrap;html=1;" parent="1" vertex="1">
          <mxGeometry x="90" y="320" width="580" height="120" as="geometry" />
        </mxCell>
        <mxCell id="an11E4ThKQJ9gUBb6iRM-18" style="edgeStyle=orthogonalEdgeStyle;rounded=1;orthogonalLoop=1;jettySize=auto;html=1;entryX=0.25;entryY=0;entryDx=0;entryDy=0;startArrow=classic;" parent="1" target="an11E4ThKQJ9gUBb6iRM-53" edge="1">
          <mxGeometry relative="1" as="geometry">
            <mxPoint x="191" y="276" as="sourcePoint" />
            <mxPoint x="193.51" y="369.19" as="targetPoint" />
          </mxGeometry>
        </mxCell>
        <mxCell id="an11E4ThKQJ9gUBb6iRM-20" value="&lt;font face=&quot;宋体&quot; size=&quot;1&quot; style=&quot;&quot;&gt;&lt;b style=&quot;font-size: 19px;&quot;&gt;GPU缓存&lt;/b&gt;&lt;/font&gt;" style="rounded=0;whiteSpace=wrap;html=1;" parent="1" vertex="1">
          <mxGeometry x="296" y="201" width="180" height="60" as="geometry" />
        </mxCell>
        <mxCell id="an11E4ThKQJ9gUBb6iRM-57" style="edgeStyle=orthogonalEdgeStyle;rounded=0;orthogonalLoop=1;jettySize=auto;html=1;entryX=0;entryY=0.5;entryDx=0;entryDy=0;startArrow=classic;startFill=1;" parent="1" source="an11E4ThKQJ9gUBb6iRM-21" target="an11E4ThKQJ9gUBb6iRM-20" edge="1">
          <mxGeometry relative="1" as="geometry" />
        </mxCell>
        <mxCell id="an11E4ThKQJ9gUBb6iRM-21" value="&lt;font face=&quot;宋体&quot; style=&quot;font-size: 19px;&quot;&gt;&lt;b style=&quot;&quot;&gt;张量管理&lt;/b&gt;&lt;/font&gt;" style="rounded=0;whiteSpace=wrap;html=1;fillColor=#CCCCCC;fontColor=#333333;strokeColor=#666666;" parent="1" vertex="1">
          <mxGeometry x="152" y="206" width="100" height="50" as="geometry" />
        </mxCell>
        <mxCell id="an11E4ThKQJ9gUBb6iRM-27" style="edgeStyle=orthogonalEdgeStyle;rounded=1;orthogonalLoop=1;jettySize=auto;html=1;exitX=1;exitY=0.5;exitDx=0;exitDy=0;entryX=0;entryY=0.5;entryDx=0;entryDy=0;startArrow=classic;" parent="1" source="an11E4ThKQJ9gUBb6iRM-28" target="an11E4ThKQJ9gUBb6iRM-35" edge="1">
          <mxGeometry relative="1" as="geometry" />
        </mxCell>
        <mxCell id="an11E4ThKQJ9gUBb6iRM-28" value="&lt;b style=&quot;border-color: var(--border-color); font-family: &amp;quot;Times New Roman&amp;quot;; font-size: 20px;&quot;&gt;CXL 接口&lt;/b&gt;" style="rounded=0;whiteSpace=wrap;html=1;" parent="1" vertex="1">
          <mxGeometry x="142" y="492" width="120" height="60" as="geometry" />
        </mxCell>
        <mxCell id="an11E4ThKQJ9gUBb6iRM-29" value="" style="rounded=0;whiteSpace=wrap;html=1;dashed=1;fillColor=none;" parent="1" vertex="1">
          <mxGeometry x="110" y="330" width="507" height="100" as="geometry" />
        </mxCell>
        <mxCell id="an11E4ThKQJ9gUBb6iRM-30" style="rounded=1;orthogonalLoop=1;jettySize=auto;html=1;entryX=1;entryY=0.5;entryDx=0;entryDy=0;exitX=0;exitY=0.5;exitDx=0;exitDy=0;startArrow=classic;" parent="1" source="an11E4ThKQJ9gUBb6iRM-32" edge="1">
          <mxGeometry relative="1" as="geometry">
            <mxPoint x="370" y="386.2615989395256" as="sourcePoint" />
            <mxPoint x="273.5" y="380" as="targetPoint" />
          </mxGeometry>
        </mxCell>
        <mxCell id="an11E4ThKQJ9gUBb6iRM-31" style="edgeStyle=orthogonalEdgeStyle;rounded=0;orthogonalLoop=1;jettySize=auto;html=1;exitX=1;exitY=0.5;exitDx=0;exitDy=0;entryX=0;entryY=0.5;entryDx=0;entryDy=0;startArrow=classic;startFill=1;" parent="1" source="an11E4ThKQJ9gUBb6iRM-32" target="an11E4ThKQJ9gUBb6iRM-36" edge="1">
          <mxGeometry relative="1" as="geometry" />
        </mxCell>
        <mxCell id="an11E4ThKQJ9gUBb6iRM-32" value="" style="rounded=0;whiteSpace=wrap;html=1;fillColor=#CCCCCC;fontColor=#333333;strokeColor=#666666;" parent="1" vertex="1">
          <mxGeometry x="334" y="335" width="120" height="90" as="geometry" />
        </mxCell>
        <mxCell id="an11E4ThKQJ9gUBb6iRM-33" value="&lt;b&gt;&lt;font face=&quot;宋体&quot; style=&quot;font-size: 14px;&quot;&gt;动态分析&lt;/font&gt;&lt;/b&gt;" style="text;html=1;strokeColor=none;fillColor=none;align=center;verticalAlign=middle;whiteSpace=wrap;rounded=0;" parent="1" vertex="1">
          <mxGeometry x="364" y="335" width="60" height="30" as="geometry" />
        </mxCell>
        <mxCell id="an11E4ThKQJ9gUBb6iRM-34" style="edgeStyle=orthogonalEdgeStyle;rounded=1;orthogonalLoop=1;jettySize=auto;html=1;exitX=1;exitY=0.5;exitDx=0;exitDy=0;entryX=0;entryY=0.5;entryDx=0;entryDy=0;startArrow=classic;" parent="1" source="an11E4ThKQJ9gUBb6iRM-35" target="an11E4ThKQJ9gUBb6iRM-46" edge="1">
          <mxGeometry relative="1" as="geometry" />
        </mxCell>
        <mxCell id="an11E4ThKQJ9gUBb6iRM-35" value="&lt;b style=&quot;border-color: var(--border-color); font-family: &amp;quot;Times New Roman&amp;quot;; font-size: 20px;&quot;&gt;MSHR预取&lt;/b&gt;" style="rounded=0;whiteSpace=wrap;html=1;fillColor=#CCCCCC;fontColor=#333333;strokeColor=#666666;" parent="1" vertex="1">
          <mxGeometry x="315.5" y="498" width="157" height="48" as="geometry" />
        </mxCell>
        <mxCell id="an11E4ThKQJ9gUBb6iRM-36" value="&lt;b&gt;&lt;font face=&quot;Times New Roman&quot; style=&quot;font-size: 20px;&quot;&gt;NVM&lt;/font&gt;&lt;/b&gt;" style="rounded=0;whiteSpace=wrap;html=1;" parent="1" vertex="1">
          <mxGeometry x="520" y="350" width="91" height="60" as="geometry" />
        </mxCell>
        <mxCell id="an11E4ThKQJ9gUBb6iRM-37" value="&lt;b&gt;&lt;font face=&quot;宋体&quot;&gt;持久化/恢复&lt;/font&gt;&lt;/b&gt;" style="text;html=1;strokeColor=none;fillColor=none;align=center;verticalAlign=middle;whiteSpace=wrap;rounded=0;" parent="1" vertex="1">
          <mxGeometry x="577" y="291" width="80" height="30" as="geometry" />
        </mxCell>
        <mxCell id="an11E4ThKQJ9gUBb6iRM-39" value="&lt;b&gt;&lt;font face=&quot;宋体&quot;&gt;迁移&lt;/font&gt;&lt;/b&gt;" style="rounded=0;whiteSpace=wrap;html=1;fillColor=none;" parent="1" vertex="1">
          <mxGeometry x="354" y="360" width="80" height="20" as="geometry" />
        </mxCell>
        <mxCell id="an11E4ThKQJ9gUBb6iRM-41" value="&lt;b&gt;&lt;font face=&quot;宋体&quot;&gt;预取&lt;/font&gt;&lt;/b&gt;" style="rounded=0;whiteSpace=wrap;html=1;fillColor=none;" parent="1" vertex="1">
          <mxGeometry x="354" y="390" width="80" height="20" as="geometry" />
        </mxCell>
        <mxCell id="an11E4ThKQJ9gUBb6iRM-42" style="rounded=0;orthogonalLoop=1;jettySize=auto;html=1;entryX=0.554;entryY=0.967;entryDx=0;entryDy=0;entryPerimeter=0;" parent="1" edge="1">
          <mxGeometry relative="1" as="geometry">
            <mxPoint x="389.59000000000003" y="493.01" as="targetPoint" />
            <mxPoint x="390" y="436" as="sourcePoint" />
          </mxGeometry>
        </mxCell>
        <mxCell id="an11E4ThKQJ9gUBb6iRM-43" value="&lt;font face=&quot;宋体&quot;&gt;&lt;b&gt;卸载/缓存&lt;/b&gt;&lt;/font&gt;" style="text;html=1;strokeColor=none;fillColor=none;align=center;verticalAlign=middle;whiteSpace=wrap;rounded=0;" parent="1" vertex="1">
          <mxGeometry x="127" y="290" width="68" height="30" as="geometry" />
        </mxCell>
        <mxCell id="an11E4ThKQJ9gUBb6iRM-45" style="rounded=1;orthogonalLoop=1;jettySize=auto;html=1;startArrow=classic;exitX=0.84;exitY=1.004;exitDx=0;exitDy=0;exitPerimeter=0;" parent="1" source="an11E4ThKQJ9gUBb6iRM-7" edge="1">
          <mxGeometry relative="1" as="geometry">
            <mxPoint x="576.8600000000001" y="276.27" as="sourcePoint" />
            <mxPoint x="578" y="350" as="targetPoint" />
          </mxGeometry>
        </mxCell>
        <mxCell id="an11E4ThKQJ9gUBb6iRM-46" value="&lt;font face=&quot;Times New Roman&quot; size=&quot;1&quot; style=&quot;&quot;&gt;&lt;b style=&quot;font-size: 20px;&quot;&gt;SSD&lt;/b&gt;&lt;/font&gt;" style="rounded=0;whiteSpace=wrap;html=1;" parent="1" vertex="1">
          <mxGeometry x="530" y="492" width="120" height="60" as="geometry" />
        </mxCell>
        <mxCell id="an11E4ThKQJ9gUBb6iRM-47" value="&lt;b&gt;&lt;font face=&quot;宋体&quot;&gt;索引&lt;/font&gt;&lt;/b&gt;" style="text;html=1;strokeColor=none;fillColor=none;align=center;verticalAlign=middle;whiteSpace=wrap;rounded=0;" parent="1" vertex="1">
          <mxGeometry x="262" y="498" width="60" height="30" as="geometry" />
        </mxCell>
        <mxCell id="an11E4ThKQJ9gUBb6iRM-48" value="&lt;b&gt;&lt;font face=&quot;宋体&quot;&gt;地址转换&lt;/font&gt;&lt;/b&gt;" style="text;html=1;strokeColor=none;fillColor=none;align=center;verticalAlign=middle;whiteSpace=wrap;rounded=0;" parent="1" vertex="1">
          <mxGeometry x="473" y="495" width="60" height="30" as="geometry" />
        </mxCell>
        <mxCell id="an11E4ThKQJ9gUBb6iRM-49" value="&lt;span style=&quot;font-size: 18px;&quot;&gt;&lt;b&gt;&lt;font face=&quot;宋体&quot;&gt;②&lt;/font&gt;&lt;/b&gt;&lt;/span&gt;&lt;font face=&quot;宋体&quot;&gt;&lt;span style=&quot;font-size: 18px;&quot;&gt;&lt;b&gt;基于负载均衡和调度算法的异构资源分析与匹配机制&lt;/b&gt;&lt;/span&gt;&lt;/font&gt;" style="text;html=1;strokeColor=none;fillColor=none;align=center;verticalAlign=middle;whiteSpace=wrap;rounded=0;" parent="1" vertex="1">
          <mxGeometry x="160" y="290" width="450" height="30" as="geometry" />
        </mxCell>
        <mxCell id="an11E4ThKQJ9gUBb6iRM-50" value="&lt;font face=&quot;宋体&quot;&gt;&lt;b&gt;&lt;span style=&quot;font-size: 18px;&quot;&gt;①&lt;/span&gt;&lt;/b&gt;&lt;span style=&quot;font-size: 18px;&quot;&gt;&lt;b&gt;基于多级推理引擎的推理计算性能优化&lt;/b&gt;&lt;/span&gt;&lt;/font&gt;" style="text;html=1;strokeColor=none;fillColor=none;align=center;verticalAlign=middle;whiteSpace=wrap;rounded=0;" parent="1" vertex="1">
          <mxGeometry x="212" y="160" width="336" height="30" as="geometry" />
        </mxCell>
        <mxCell id="an11E4ThKQJ9gUBb6iRM-53" value="&lt;font face=&quot;Times New Roman&quot; style=&quot;font-size: 20px;&quot;&gt;&lt;b&gt;DRAM&lt;/b&gt;&lt;/font&gt;" style="rounded=0;whiteSpace=wrap;html=1;" parent="1" vertex="1">
          <mxGeometry x="164" y="350" width="108" height="60" as="geometry" />
        </mxCell>
        <mxCell id="an11E4ThKQJ9gUBb6iRM-59" value="&lt;b&gt;&lt;font face=&quot;宋体&quot; style=&quot;font-size: 14px;&quot;&gt;异构内存&lt;/font&gt;&lt;/b&gt;" style="text;html=1;strokeColor=none;fillColor=none;align=center;verticalAlign=middle;whiteSpace=wrap;rounded=0;" parent="1" vertex="1">
          <mxGeometry x="110" y="324" width="70" height="30" as="geometry" />
        </mxCell>
        <mxCell id="h93lJhw_uuUEvYgy6oja-1" value="&lt;font face=&quot;宋体&quot;&gt;&lt;span style=&quot;font-size: 18px;&quot;&gt;&lt;b&gt;③基于实时监控和自适应算法的动态资源调度策略&lt;/b&gt;&lt;/span&gt;&lt;/font&gt;" style="text;html=1;strokeColor=none;fillColor=none;align=center;verticalAlign=middle;whiteSpace=wrap;rounded=0;" vertex="1" parent="1">
          <mxGeometry x="161" y="462" width="450" height="30" as="geometry" />
        </mxCell>
        <mxCell id="h93lJhw_uuUEvYgy6oja-2" value="" style="rounded=0;whiteSpace=wrap;html=1;" vertex="1" parent="1">
          <mxGeometry x="490" y="201" width="160" height="60" as="geometry" />
        </mxCell>
        <mxCell id="h93lJhw_uuUEvYgy6oja-4" value="&lt;font face=&quot;宋体&quot;&gt;&lt;b&gt;模型仓库&lt;/b&gt;&lt;/font&gt;" style="text;html=1;strokeColor=none;fillColor=none;align=center;verticalAlign=middle;whiteSpace=wrap;rounded=0;" vertex="1" parent="1">
          <mxGeometry x="536" y="238" width="68" height="30" as="geometry" />
        </mxCell>
        <mxCell id="h93lJhw_uuUEvYgy6oja-5" value="" style="rounded=1;whiteSpace=wrap;html=1;" vertex="1" parent="1">
          <mxGeometry x="577" y="208" width="70" height="30" as="geometry" />
        </mxCell>
      </root>
    </mxGraphModel>
  </diagram>
</mxfile>
